<svg version="1.1"
	 xmlns="http://www.w3.org/2000/svg" xmlns:xlink="http://www.w3.org/1999/xlink" xmlns:a="http://ns.adobe.com/AdobeSVGViewerExtensions/3.0/"
	 x="0px" y="0px" width="261.5px" height="40.9px" viewBox="0 0 261.5 40.9"
	 style="overflow:scroll;enable-background:new 0 0 261.5 40.9;" xml:space="preserve">
<style type="text/css">
	.st0{fill:#00A357;}
</style>
<defs>
</defs>
<g>
	<path class="st0" d="M75.4,11.6c-2.9-1.8-6-2.7-9.4-2.7h0C64.2,9,62.6,9.2,61,9.6c-1.4,0.4-2.7,1-3.7,1.8c-1.3-1-2.7-1.6-4.3-2
		c-1.7-0.4-3.4-0.6-5.2-0.6h0c-3.3,0.2-6.4,1.1-9.1,2.9c-2.8,1.9-4.3,5.5-4.3,10.8v18.2h9.3V21.1c0-1.6,0.4-2.6,1.3-3.3
		c0.9-0.7,1.9-1.1,3.1-1.1c1.2,0,2.2,0.4,3.1,1.1c0.9,0.7,1.3,1.7,1.3,3.3v19.8h9.2V21.1c0-1.5,0.4-2.6,1.3-3.3
		c0.9-0.7,2-1.1,3.1-1.1s2.2,0.4,3.1,1.1c0.9,0.7,1.3,1.7,1.3,3.3v15.2c0,1.3,0.4,2.4,1.3,3.3c0.8,0.9,1.9,1.3,3.3,1.3h4.7V22.6
		C79.8,17.1,78.3,13.4,75.4,11.6"/>
	<path class="st0" d="M105.7,11.6c-2.9-1.8-6-2.7-9.4-2.7h0C93,9,89.9,10,87.2,11.8c-2.8,1.9-4.3,5.5-4.3,10.8v18.2h9.3V21.1
		c0-1.6,0.4-2.6,1.3-3.3c0.9-0.7,1.9-1.1,3.1-1.1c1.2,0,2.2,0.4,3.1,1.1c0.9,0.7,1.3,1.7,1.3,3.3v15.2c0,1.3,0.4,2.4,1.3,3.3
		c0.8,0.9,1.9,1.3,3.3,1.3h4.7V22.6C110.2,17.1,108.7,13.4,105.7,11.6"/>
	<path class="st0" d="M118.1,9h-4.8v31.8h9.3V13.6c0-1.2-0.4-2.3-1.3-3.2C120.5,9.4,119.4,9,118.1,9"/>
	<path class="st0" d="M118.1,0h-4.8v7.7h9.3V4.6c0-1.2-0.4-2.3-1.3-3.2C120.5,0.5,119.4,0,118.1,0"/>
	<path class="st0" d="M134.8,32.2V15.9c1.2,0,2.3-0.4,3.2-1.3c0.9-0.9,1.4-2,1.4-3.3V9h-4.6V4.6c0-1.2-0.4-2.3-1.3-3.2
		c-0.9-0.9-1.9-1.3-3.1-1.3h-4.8v34.4c0,4.8,2.7,6.1,5,6.2c1.7,0.1,3.4,0.2,5,0.2c1.1,0,2.1,0,3.1-0.1l0.7,0v-7.3h-3.1
		C134.9,33.4,134.8,32.8,134.8,32.2"/>
	<path class="st0" d="M193.1,10.3c-0.8,0.9-1.3,2-1.3,3.2v15.2c0,1.5-0.4,2.6-1.3,3.3c-0.9,0.7-2,1.1-3.1,1.1
		c-1.2,0-2.2-0.3-3.1-1.1c-0.8-0.7-1.3-1.7-1.3-3.3V9h-9.3v18.2c0,5.4,1.5,9,4.3,10.8c2.7,1.7,5.8,2.6,9.1,2.8h0
		c3.4,0,6.5-0.9,9.4-2.6c3-1.8,4.5-5.5,4.5-11.1V9h-4.7C195.1,9,194,9.4,193.1,10.3"/>
	<path class="st0" d="M214.6,9.8c-2,0.5-3.7,1.4-5.2,2.6c-1.6,1.3-2.8,3-3.7,5c-0.9,2.1-1.3,4.6-1.3,7.6v15.7h9.3V24.2
		c0-2,0.4-3.5,1.3-4.4c0.9-0.9,2.3-1.3,4.2-1.3h3.3V9h-1.9C218.6,9,216.5,9.3,214.6,9.8"/>
	<path class="st0" d="M160.1,29.9c-1.4,1.4-3,2.1-5,2.1s-3.6-0.7-5-2.1c-1.4-1.4-2.1-3-2.1-5c0-2,0.7-3.6,2.1-5c1.4-1.4,3-2.1,5-2.1
		s3.6,0.7,5,2.1c1.4,1.4,2.1,3,2.1,5C162.1,26.8,161.5,28.5,160.1,29.9 M155.1,9c-4.3,0-8.1,1.6-11.1,4.6s-4.6,6.9-4.6,11.2
		c0,4.4,1.6,8.1,4.6,11.2c3.1,3.1,6.8,4.7,11.1,4.7c4.3,0,8.1-1.6,11.1-4.7c3.1-3.1,4.6-6.9,4.6-11.2c0-4.4-1.6-8.1-4.6-11.2
		S159.4,9,155.1,9"/>
	<path class="st0" d="M249.8,24.5c-1.6-1.3-4.2-2.4-8-3.4l-2.1-0.4c-4.9-1-5-2.1-5-2.2c0-0.6,0.2-1,0.6-1.3c0.6-0.4,1.6-0.5,2.9-0.5
		c1.3,0,3.2,0.5,3.9,1.6c0.9,1.4,2.1,2.1,3.7,2.1h5.5l0-0.8c-0.2-3.1-1.4-5.7-3.6-7.6l0,0c-2.4-1.8-5.5-2.7-9.5-2.7
		c-3.6,0-6.6,0.9-8.9,2.7l0,0c-2.3,2-3.4,4.5-3.4,7.5c0,2.4,0.8,4.3,2.4,5.8c1.4,1.4,4,2.6,8,3.6c1.4,0.4,1.8,0.4,3,0.7
		c2.6,0.5,4,1.3,4,2.2c0,0.4-0.1,0.9-0.9,1.4c-0.8,0.4-1.8,0.7-3,0.7c-1.7,0-3-0.3-3.9-1c-0.8-0.6-1.3-1.5-1.3-2.7l0-0.7H225v1.1
		c0,3.4,1.2,6.1,3.4,7.9c2.2,1.8,5.4,2.7,9.7,2.7c4.5,0,7.9-0.9,10.2-2.6c2.5-1.9,3.8-4.6,3.8-8C252.1,27.9,251.4,25.9,249.8,24.5
		L249.8,24.5z"/>
	<path class="st0" d="M257,12.7c-2,0-3.4-1.6-3.4-3.5c0-1.9,1.5-3.5,3.4-3.5c2,0,3.4,1.6,3.4,3.6C260.4,11.2,258.9,12.7,257,12.7
		 M257,4.8c-2.5,0-4.5,2-4.5,4.4c0,2.5,2,4.5,4.5,4.5c2.5,0,4.5-2,4.5-4.5C261.5,6.7,259.5,4.8,257,4.8"/>
	<path class="st0" d="M256.8,9h-0.5V7.7c0.1,0,0.3-0.1,0.6-0.1c0.6,0,0.9,0.3,0.9,0.7C257.8,8.8,257.4,9,256.8,9 M258,9.3L258,9.3
		c0.5-0.2,0.9-0.6,0.9-1.1c0-0.4-0.2-0.8-0.4-1c-0.3-0.2-0.7-0.3-1.5-0.3c-0.7,0-1.3,0.1-1.7,0.1v4.4h1V9.7h0.5
		c0.6,0,0.8,0.2,0.9,0.7c0.1,0.5,0.2,0.9,0.3,1.1h1.1c-0.1-0.2-0.2-0.4-0.3-1.1C258.7,9.8,258.4,9.5,258,9.3"/>
	<path class="st0" d="M20.8,29.9c-1.4,1.4-3,2.1-5,2.1s-3.6-0.7-5-2.1c-1.4-1.4-2.1-3-2.1-5c0-2,0.7-3.6,2.1-5c1.4-1.4,3-2.1,5-2.1
		s3.6,0.7,5,2.1c1.4,1.4,2.1,3,2.1,5C22.8,26.8,22.1,28.5,20.8,29.9 M15.8,9c-4.3,0-8.1,1.6-11.1,4.6S0,20.5,0,24.9
		c0,4.4,1.6,8.1,4.6,11.2c3.1,3.1,6.8,4.7,11.1,4.7c4.3,0,8.1-1.6,11.1-4.7c3.1-3.1,4.6-6.9,4.6-11.2c0-4.4-1.6-8.1-4.6-11.2
		C23.8,10.6,20.1,9,15.8,9"/>
</g>
</svg>
